<svg width="24" height="25" viewBox="0 0 24 25" fill="none" xmlns="http://www.w3.org/2000/svg">
<path d="M18 3.4707C19.0609 3.4707 20.0783 3.89213 20.8284 4.64228C21.5786 5.39242 22 6.40984 22 7.4707V15.4707C22 16.5316 21.5786 17.549 20.8284 18.2991C20.0783 19.0493 19.0609 19.4707 18 19.4707H15.414L12.707 22.1777C12.5348 22.3499 12.3057 22.4533 12.0627 22.4686C11.8197 22.4839 11.5794 22.41 11.387 22.2607L11.293 22.1777L8.585 19.4707H6C4.97376 19.4707 3.98677 19.0763 3.24319 18.369C2.4996 17.6617 2.05631 16.6957 2.005 15.6707L2 15.4707V7.4707C2 6.40984 2.42143 5.39242 3.17157 4.64228C3.92172 3.89213 4.93913 3.4707 6 3.4707H18ZM14 12.4707H8C7.73478 12.4707 7.48043 12.5761 7.29289 12.7636C7.10536 12.9511 7 13.2055 7 13.4707C7 13.7359 7.10536 13.9903 7.29289 14.1778C7.48043 14.3653 7.73478 14.4707 8 14.4707H14C14.2652 14.4707 14.5196 14.3653 14.7071 14.1778C14.8946 13.9903 15 13.7359 15 13.4707C15 13.2055 14.8946 12.9511 14.7071 12.7636C14.5196 12.5761 14.2652 12.4707 14 12.4707ZM16 8.4707H8C7.73478 8.4707 7.48043 8.57606 7.29289 8.7636C7.10536 8.95113 7 9.20549 7 9.4707C7 9.73592 7.10536 9.99027 7.29289 10.1778C7.48043 10.3653 7.73478 10.4707 8 10.4707H16C16.2652 10.4707 16.5196 10.3653 16.7071 10.1778C16.8946 9.99027 17 9.73592 17 9.4707C17 9.20549 16.8946 8.95113 16.7071 8.7636C16.5196 8.57606 16.2652 8.4707 16 8.4707Z" fill="url(#paint0_linear_439_281)"/>
<defs>
<linearGradient id="paint0_linear_439_281" x1="13.5" y1="10.2207" x2="12" y2="26.2207" gradientUnits="userSpaceOnUse">
<stop stop-color="#F76079"/>
<stop offset="1" stop-color="#FFB606"/>
</linearGradient>
</defs>
</svg>
