<svg width="111" height="31" viewBox="0 0 111 31" fill="none" xmlns="http://www.w3.org/2000/svg">
<rect x="0.00683594" y="0.25" width="110.511" height="30" rx="6" fill="url(#paint0_linear_502_1115)"/>
<path d="M13.8066 10.5527C16.4546 8.67494 20.2516 8.83288 22.6904 10.9121C25.1392 13.0016 25.456 16.3689 23.4629 18.7881C21.5595 21.0975 18.0804 21.8914 15.1641 20.6797L14.9912 20.6055L14.7715 20.5098L14.5371 20.5596L11.2842 21.252H11.2588L11.2607 21.2461L11.2627 21.2422L12.1191 18.6709L12.2275 18.3457L12.0518 18.0508L12.0352 18.0225C10.5867 15.5635 11.2216 12.5022 13.6445 10.6719L13.8066 10.5527Z" stroke="white" stroke-width="1.5"/>
<path d="M38.9304 20.945C38.2204 20.945 37.5529 20.805 36.9279 20.525C36.3029 20.24 35.7529 19.8475 35.2779 19.3475C34.8079 18.8475 34.4379 18.27 34.1679 17.615C33.9029 16.955 33.7704 16.25 33.7704 15.5C33.7704 14.745 33.9029 14.04 34.1679 13.385C34.4379 12.725 34.8079 12.1475 35.2779 11.6525C35.7529 11.1525 36.3029 10.7625 36.9279 10.4825C37.5529 10.1975 38.2204 10.055 38.9304 10.055C39.7804 10.055 40.5629 10.2525 41.2779 10.6475C41.9929 11.0375 42.5854 11.56 43.0554 12.215L41.4204 13.0925C41.1254 12.7275 40.7579 12.435 40.3179 12.215C39.8829 11.995 39.4204 11.885 38.9304 11.885C38.4704 11.885 38.0379 11.98 37.6329 12.17C37.2279 12.355 36.8729 12.615 36.5679 12.95C36.2629 13.28 36.0254 13.665 35.8554 14.105C35.6854 14.54 35.6004 15.005 35.6004 15.5C35.6004 16 35.6854 16.4675 35.8554 16.9025C36.0304 17.3375 36.2704 17.7225 36.5754 18.0575C36.8804 18.3875 37.2329 18.6475 37.6329 18.8375C38.0379 19.0225 38.4704 19.115 38.9304 19.115C39.4304 19.115 39.8954 19.005 40.3254 18.785C40.7604 18.56 41.1254 18.265 41.4204 17.9L43.0554 18.785C42.5854 19.435 41.9929 19.9575 41.2779 20.3525C40.5629 20.7475 39.7804 20.945 38.9304 20.945ZM47.3753 20.945C46.6853 20.945 46.0553 20.7675 45.4853 20.4125C44.9203 20.0575 44.4678 19.5825 44.1278 18.9875C43.7928 18.3875 43.6253 17.725 43.6253 17C43.6253 16.45 43.7228 15.9375 43.9178 15.4625C44.1128 14.9825 44.3803 14.5625 44.7203 14.2025C45.0653 13.8375 45.4653 13.5525 45.9203 13.3475C46.3753 13.1425 46.8603 13.04 47.3753 13.04C48.0653 13.04 48.6928 13.2175 49.2578 13.5725C49.8278 13.9275 50.2803 14.405 50.6153 15.005C50.9553 15.605 51.1253 16.27 51.1253 17C51.1253 17.545 51.0278 18.055 50.8328 18.53C50.6378 19.005 50.3678 19.425 50.0228 19.79C49.6828 20.15 49.2853 20.4325 48.8303 20.6375C48.3803 20.8425 47.8953 20.945 47.3753 20.945ZM47.3753 19.115C47.7403 19.115 48.0678 19.0175 48.3578 18.8225C48.6478 18.6275 48.8753 18.37 49.0403 18.05C49.2103 17.73 49.2953 17.38 49.2953 17C49.2953 16.61 49.2078 16.255 49.0328 15.935C48.8628 15.61 48.6303 15.3525 48.3353 15.1625C48.0453 14.9675 47.7253 14.87 47.3753 14.87C47.0153 14.87 46.6903 14.9675 46.4003 15.1625C46.1103 15.3575 45.8803 15.6175 45.7103 15.9425C45.5403 16.2675 45.4553 16.62 45.4553 17C45.4553 17.395 45.5428 17.7525 45.7178 18.0725C45.8928 18.3925 46.1253 18.6475 46.4153 18.8375C46.7103 19.0225 47.0303 19.115 47.3753 19.115ZM52.2931 20.75V13.25H54.1231V13.9175C54.3781 13.6475 54.6831 13.435 55.0381 13.28C55.3931 13.12 55.7756 13.04 56.1856 13.04C56.7056 13.04 57.1831 13.1625 57.6181 13.4075C58.0581 13.6525 58.4081 13.98 58.6681 14.39C58.9331 13.98 59.2831 13.6525 59.7181 13.4075C60.1531 13.1625 60.6306 13.04 61.1506 13.04C61.7006 13.04 62.1981 13.175 62.6431 13.445C63.0931 13.71 63.4506 14.0675 63.7156 14.5175C63.9856 14.9625 64.1206 15.46 64.1206 16.01V20.75H62.2906V16.4975C62.2906 16.2075 62.2181 15.9425 62.0731 15.7025C61.9331 15.4575 61.7431 15.2625 61.5031 15.1175C61.2681 14.9675 61.0031 14.8925 60.7081 14.8925C60.4131 14.8925 60.1456 14.965 59.9056 15.11C59.6706 15.25 59.4806 15.44 59.3356 15.68C59.1906 15.92 59.1181 16.1925 59.1181 16.4975V20.75H57.2881V16.4975C57.2881 16.1925 57.2181 15.92 57.0781 15.68C56.9381 15.44 56.7481 15.25 56.5081 15.11C56.2681 14.965 56.0006 14.8925 55.7056 14.8925C55.4156 14.8925 55.1506 14.9675 54.9106 15.1175C54.6706 15.2625 54.4781 15.4575 54.3331 15.7025C54.1931 15.9425 54.1231 16.2075 54.1231 16.4975V20.75H52.2931ZM65.6231 20.75V13.25H67.4531V13.9175C67.7081 13.6475 68.0131 13.435 68.3681 13.28C68.7231 13.12 69.1056 13.04 69.5156 13.04C70.0356 13.04 70.5131 13.1625 70.9481 13.4075C71.3881 13.6525 71.7381 13.98 71.9981 14.39C72.2631 13.98 72.6131 13.6525 73.0481 13.4075C73.4831 13.1625 73.9606 13.04 74.4806 13.04C75.0306 13.04 75.5281 13.175 75.9731 13.445C76.4231 13.71 76.7806 14.0675 77.0456 14.5175C77.3156 14.9625 77.4506 15.46 77.4506 16.01V20.75H75.6206V16.4975C75.6206 16.2075 75.5481 15.9425 75.4031 15.7025C75.2631 15.4575 75.0731 15.2625 74.8331 15.1175C74.5981 14.9675 74.3331 14.8925 74.0381 14.8925C73.7431 14.8925 73.4756 14.965 73.2356 15.11C73.0006 15.25 72.8106 15.44 72.6656 15.68C72.5206 15.92 72.4481 16.1925 72.4481 16.4975V20.75H70.6181V16.4975C70.6181 16.1925 70.5481 15.92 70.4081 15.68C70.2681 15.44 70.0781 15.25 69.8381 15.11C69.5981 14.965 69.3306 14.8925 69.0356 14.8925C68.7456 14.8925 68.4806 14.9675 68.2406 15.1175C68.0006 15.2625 67.8081 15.4575 67.6631 15.7025C67.5231 15.9425 67.4531 16.2075 67.4531 16.4975V20.75H65.6231ZM82.1067 20.945C81.4167 20.945 80.7867 20.7675 80.2167 20.4125C79.6517 20.0575 79.1992 19.58 78.8592 18.98C78.5242 18.38 78.3567 17.7175 78.3567 16.9925C78.3567 16.4475 78.4542 15.9375 78.6492 15.4625C78.8442 14.9825 79.1117 14.5625 79.4517 14.2025C79.7967 13.8375 80.1967 13.5525 80.6517 13.3475C81.1067 13.1425 81.5917 13.04 82.1067 13.04C82.6917 13.04 83.2267 13.165 83.7117 13.415C84.2017 13.66 84.6167 13.9975 84.9567 14.4275C85.2967 14.8575 85.5442 15.3475 85.6992 15.8975C85.8542 16.4475 85.8892 17.0225 85.8042 17.6225H80.3217C80.3917 17.9025 80.5067 18.155 80.6667 18.38C80.8267 18.6 81.0292 18.7775 81.2742 18.9125C81.5192 19.0425 81.7967 19.11 82.1067 19.115C82.4267 19.12 82.7167 19.045 82.9767 18.89C83.2417 18.73 83.4617 18.515 83.6367 18.245L85.5042 18.68C85.1992 19.345 84.7442 19.89 84.1392 20.315C83.5342 20.735 82.8567 20.945 82.1067 20.945ZM80.2617 16.25H83.9517C83.8967 15.95 83.7792 15.68 83.5992 15.44C83.4242 15.195 83.2067 15 82.9467 14.855C82.6867 14.71 82.4067 14.6375 82.1067 14.6375C81.8067 14.6375 81.5292 14.71 81.2742 14.855C81.0192 14.995 80.8017 15.1875 80.6217 15.4325C80.4467 15.6725 80.3267 15.945 80.2617 16.25ZM93.8945 16.01V20.75H92.0645V16.49C92.0645 16.195 91.992 15.9275 91.847 15.6875C91.702 15.4425 91.507 15.25 91.262 15.11C91.022 14.965 90.7545 14.8925 90.4595 14.8925C90.1645 14.8925 89.8945 14.965 89.6495 15.11C89.4095 15.25 89.217 15.4425 89.072 15.6875C88.932 15.9275 88.862 16.195 88.862 16.49V20.75H87.032L87.0245 13.25H88.8545L88.862 13.9175C89.117 13.6475 89.422 13.435 89.777 13.28C90.132 13.12 90.5145 13.04 90.9245 13.04C91.4695 13.04 91.967 13.175 92.417 13.445C92.867 13.71 93.2245 14.0675 93.4895 14.5175C93.7595 14.9625 93.8945 15.46 93.8945 16.01ZM99.4088 15.08H97.9538V20.75H96.1238V15.08H95.0138V13.25H96.1238V10.895H97.9538V13.25H99.4088V15.08Z" fill="white"/>
<defs>
<linearGradient id="paint0_linear_502_1115" x1="0.00683594" y1="15.25" x2="190.746" y2="-8.7365" gradientUnits="userSpaceOnUse">
<stop stop-color="#F76079"/>
<stop offset="1" stop-color="#FFCC6E"/>
</linearGradient>
</defs>
</svg>
