<svg width="24" height="25" viewBox="0 0 24 25" fill="none" xmlns="http://www.w3.org/2000/svg">
<path d="M4 13.4707C5.78309 13.6826 7.44305 14.4882 8.71276 15.7579C9.98247 17.0277 10.7881 18.6876 11 20.4707C11.8839 19.9611 12.6233 19.2345 13.1482 18.3596C13.6732 17.4847 13.9663 16.4904 14 15.4707C15.6791 14.88 17.1454 13.8047 18.2133 12.3807C19.2813 10.9567 19.9031 9.24804 20 7.4707C20 6.67505 19.6839 5.91199 19.1213 5.34938C18.5587 4.78677 17.7956 4.4707 17 4.4707C15.2227 4.56761 13.514 5.18937 12.09 6.25735C10.666 7.32534 9.59069 8.79159 9 10.4707C7.98026 10.5044 6.98596 10.7975 6.11106 11.3225C5.23617 11.8474 4.50959 12.5868 4 13.4707Z" fill="url(#paint0_linear_439_285)" stroke="url(#paint1_linear_439_285)" stroke-width="2" stroke-linecap="round" stroke-linejoin="round"/>
<path d="M6.99999 14.4707C5.95922 15.0583 5.11765 15.9433 4.58315 17.0123C4.04865 18.0813 3.84559 19.2855 3.99999 20.4707C5.18515 20.6251 6.38942 20.422 7.45841 19.8875C8.52741 19.353 9.41242 18.5115 9.99999 17.4707M14 9.4707C14 9.73592 14.1053 9.99027 14.2929 10.1778C14.4804 10.3653 14.7348 10.4707 15 10.4707C15.2652 10.4707 15.5196 10.3653 15.7071 10.1778C15.8946 9.99027 16 9.73592 16 9.4707C16 9.20549 15.8946 8.95113 15.7071 8.7636C15.5196 8.57606 15.2652 8.4707 15 8.4707C14.7348 8.4707 14.4804 8.57606 14.2929 8.7636C14.1053 8.95113 14 9.20549 14 9.4707Z" fill="url(#paint2_linear_439_285)"/>
<path d="M6.99999 14.4707C5.95922 15.0583 5.11765 15.9433 4.58315 17.0123C4.04865 18.0813 3.84559 19.2855 3.99999 20.4707C5.18515 20.6251 6.38942 20.422 7.45841 19.8875C8.52741 19.353 9.41242 18.5115 9.99999 17.4707M14 9.4707C14 9.73592 14.1053 9.99027 14.2929 10.1778C14.4804 10.3653 14.7348 10.4707 15 10.4707C15.2652 10.4707 15.5196 10.3653 15.7071 10.1778C15.8946 9.99027 16 9.73592 16 9.4707C16 9.20549 15.8946 8.95113 15.7071 8.7636C15.5196 8.57606 15.2652 8.4707 15 8.4707C14.7348 8.4707 14.4804 8.57606 14.2929 8.7636C14.1053 8.95113 14 9.20549 14 9.4707Z" stroke="url(#paint3_linear_439_285)" stroke-width="2" stroke-linecap="round" stroke-linejoin="round"/>
<defs>
<linearGradient id="paint0_linear_439_285" x1="18.5" y1="8.4707" x2="9.5" y2="17.9707" gradientUnits="userSpaceOnUse">
<stop stop-color="#F76079"/>
<stop offset="1" stop-color="#FFCC6E"/>
</linearGradient>
<linearGradient id="paint1_linear_439_285" x1="21.5" y1="10.4707" x2="12" y2="20.4707" gradientUnits="userSpaceOnUse">
<stop stop-color="#F76079"/>
<stop offset="1" stop-color="#FFCC6E"/>
</linearGradient>
<linearGradient id="paint2_linear_439_285" x1="7" y1="19.4707" x2="8.5" y2="16.4707" gradientUnits="userSpaceOnUse">
<stop stop-color="#F76079"/>
<stop offset="1" stop-color="#FFCC6E"/>
</linearGradient>
<linearGradient id="paint3_linear_439_285" x1="3.94971" y1="14.4958" x2="16" y2="14.4958" gradientUnits="userSpaceOnUse">
<stop stop-color="#F76079"/>
<stop offset="1" stop-color="#FFCC6E"/>
</linearGradient>
</defs>
</svg>
