<svg width="26" height="25" viewBox="0 0 26 25" fill="none" xmlns="http://www.w3.org/2000/svg">
<path d="M19.3529 20.7207C20.1018 20.7207 20.82 21.0104 21.3495 21.5262C21.879 22.0419 22.1765 22.7414 22.1765 23.4707C22.1765 22.7414 22.4739 22.0419 23.0035 21.5262C23.533 21.0104 24.2512 20.7207 25 20.7207C24.2512 20.7207 23.533 20.431 23.0035 19.9152C22.4739 19.3995 22.1765 18.7 22.1765 17.9707C22.1765 18.7 21.879 19.3995 21.3495 19.9152C20.82 20.431 20.1018 20.7207 19.3529 20.7207ZM19.3529 4.2207C20.1018 4.2207 20.82 4.51043 21.3495 5.02616C21.879 5.54188 22.1765 6.24136 22.1765 6.9707C22.1765 6.24136 22.4739 5.54188 23.0035 5.02616C23.533 4.51043 24.2512 4.2207 25 4.2207C24.2512 4.2207 23.533 3.93097 23.0035 3.41525C22.4739 2.89952 22.1765 2.20005 22.1765 1.4707C22.1765 2.20005 21.879 2.89952 21.3495 3.41525C20.82 3.93097 20.1018 4.2207 19.3529 4.2207ZM9.47059 20.7207C9.47059 18.5327 10.363 16.4342 11.9516 14.8871C13.5401 13.3399 15.6946 12.4707 17.9412 12.4707C15.6946 12.4707 13.5401 11.6015 11.9516 10.0543C10.363 8.50716 9.47059 6.40874 9.47059 4.2207C9.47059 6.40874 8.57815 8.50716 6.98961 10.0543C5.40107 11.6015 3.24654 12.4707 1 12.4707C3.24654 12.4707 5.40107 13.3399 6.98961 14.8871C8.57815 16.4342 9.47059 18.5327 9.47059 20.7207Z" fill="url(#paint0_linear_439_278)" stroke="url(#paint1_linear_439_278)" stroke-width="2" stroke-linecap="round" stroke-linejoin="round"/>
<defs>
<linearGradient id="paint0_linear_439_278" x1="13.7059" y1="9.37695" x2="13.0362" y2="23.4724" gradientUnits="userSpaceOnUse">
<stop stop-color="#F76079"/>
<stop offset="1" stop-color="#FFCC6E"/>
</linearGradient>
<linearGradient id="paint1_linear_439_278" x1="15.8235" y1="10.752" x2="13.139" y2="23.5" gradientUnits="userSpaceOnUse">
<stop stop-color="#F76079"/>
<stop offset="1" stop-color="#FFCC6E"/>
</linearGradient>
</defs>
</svg>
