<svg width="24" height="25" viewBox="0 0 24 25" fill="none" xmlns="http://www.w3.org/2000/svg">
<path d="M12.7068 2.76349L21.7068 11.7635C22.3368 12.3935 21.8908 13.4705 20.9998 13.4705H19.9998V19.4705C19.9998 20.2661 19.6837 21.0292 19.1211 21.5918C18.5585 22.1544 17.7954 22.4705 16.9998 22.4705H15.9998V15.4705C15.9998 14.7053 15.7075 13.969 15.1825 13.4122C14.6576 12.8555 13.9397 12.5204 13.1758 12.4755L12.9998 12.4705H10.9998C10.2041 12.4705 9.44108 12.7866 8.87847 13.3492C8.31587 13.9118 7.99979 14.6748 7.99979 15.4705V22.4705H6.99979C6.20415 22.4705 5.44108 22.1544 4.87847 21.5918C4.31587 21.0292 3.99979 20.2661 3.99979 19.4705V13.4705H2.99979C2.10979 13.4705 1.66279 12.3935 2.29279 11.7635L11.2928 2.76349C11.4803 2.57602 11.7346 2.4707 11.9998 2.4707C12.265 2.4707 12.5193 2.57602 12.7068 2.76349ZM12.9998 14.4705C13.265 14.4705 13.5194 14.5758 13.7069 14.7634C13.8944 14.9509 13.9998 15.2053 13.9998 15.4705V22.4705H9.99979V15.4705C9.99983 15.2256 10.0898 14.9892 10.2525 14.8061C10.4153 14.6231 10.6395 14.5061 10.8828 14.4775L10.9998 14.4705H12.9998Z" fill="url(#paint0_linear_439_274)"/>
<defs>
<linearGradient id="paint0_linear_439_274" x1="14.9998" y1="5.7207" x2="11.9998" y2="34.2207" gradientUnits="userSpaceOnUse">
<stop stop-color="#F76079"/>
<stop offset="1" stop-color="#FFCC6E"/>
</linearGradient>
</defs>
</svg>
