<svg width="72" height="31" viewBox="0 0 72 31" fill="none" xmlns="http://www.w3.org/2000/svg">
<rect x="0.5" y="0.25" width="71.5067" height="30" rx="6" fill="url(#paint0_linear_502_1112)"/>
<path d="M14.8701 9.29932C15.4232 9.20511 15.9908 9.23601 16.5303 9.39014C17.0021 9.525 17.4424 9.75063 17.8262 10.0542L17.9873 10.1899L18.0137 10.2124L18.5098 10.6558L19.0088 10.2153L19.0332 10.1938C19.4339 9.84234 19.9051 9.58043 20.415 9.42529C20.9251 9.27014 21.4626 9.22554 21.9912 9.29443V9.29346L22.1436 9.31689H22.1445C22.8108 9.43193 23.4339 9.72454 23.9473 10.1646C24.4607 10.6047 24.846 11.1759 25.0615 11.8169C25.277 12.4578 25.3151 13.1453 25.1719 13.8062C25.0297 14.462 24.7137 15.0679 24.2578 15.5601L24.1465 15.6743L24.1377 15.6831L24.1162 15.7007L24.0967 15.7202L18.5098 21.2524L18.4971 21.2417L12.8896 15.688L12.8848 15.6831C12.3888 15.2005 12.0357 14.5901 11.8652 13.9194C11.6948 13.2486 11.7135 12.5433 11.9189 11.8823C12.1245 11.2213 12.5095 10.6303 13.0303 10.1743C13.5511 9.71841 14.1878 9.41562 14.8701 9.29932Z" stroke="white" stroke-width="1.5"/>
<path d="M34.7545 20.75V10.25H36.5845V18.92H40.957V20.75H34.7545ZM42.6061 13.25H44.4361V20.75H42.6061V13.25ZM43.5361 12.2825C43.2661 12.2825 43.0386 12.195 42.8536 12.02C42.6686 11.84 42.5761 11.615 42.5761 11.345C42.5761 11.08 42.6686 10.8575 42.8536 10.6775C43.0386 10.4975 43.2636 10.4075 43.5286 10.4075C43.7936 10.4075 44.0161 10.4975 44.1961 10.6775C44.3811 10.8575 44.4736 11.08 44.4736 11.345C44.4736 11.615 44.3836 11.84 44.2036 12.02C44.0236 12.195 43.8011 12.2825 43.5361 12.2825ZM52.9657 20.75H50.8582L49.1482 17.8025L48.0982 19.055V20.75H46.2682V9.5H48.0982V16.2125L50.5807 13.25H52.9732L50.4007 16.3175L52.9657 20.75ZM56.9656 20.945C56.2756 20.945 55.6456 20.7675 55.0756 20.4125C54.5106 20.0575 54.0581 19.58 53.7181 18.98C53.3831 18.38 53.2156 17.7175 53.2156 16.9925C53.2156 16.4475 53.3131 15.9375 53.5081 15.4625C53.7031 14.9825 53.9706 14.5625 54.3106 14.2025C54.6556 13.8375 55.0556 13.5525 55.5106 13.3475C55.9656 13.1425 56.4506 13.04 56.9656 13.04C57.5506 13.04 58.0856 13.165 58.5706 13.415C59.0606 13.66 59.4756 13.9975 59.8156 14.4275C60.1556 14.8575 60.4031 15.3475 60.5581 15.8975C60.7131 16.4475 60.7481 17.0225 60.6631 17.6225H55.1806C55.2506 17.9025 55.3656 18.155 55.5256 18.38C55.6856 18.6 55.8881 18.7775 56.1331 18.9125C56.3781 19.0425 56.6556 19.11 56.9656 19.115C57.2856 19.12 57.5756 19.045 57.8356 18.89C58.1006 18.73 58.3206 18.515 58.4956 18.245L60.3631 18.68C60.0581 19.345 59.6031 19.89 58.9981 20.315C58.3931 20.735 57.7156 20.945 56.9656 20.945ZM55.1206 16.25H58.8106C58.7556 15.95 58.6381 15.68 58.4581 15.44C58.2831 15.195 58.0656 15 57.8056 14.855C57.5456 14.71 57.2656 14.6375 56.9656 14.6375C56.6656 14.6375 56.3881 14.71 56.1331 14.855C55.8781 14.995 55.6606 15.1875 55.4806 15.4325C55.3056 15.6725 55.1856 15.945 55.1206 16.25Z" fill="white"/>
<defs>
<linearGradient id="paint0_linear_502_1112" x1="11.9594" y1="22.75" x2="172.585" y2="-3.72773" gradientUnits="userSpaceOnUse">
<stop stop-color="#F76079"/>
<stop offset="1" stop-color="#FFCC6E"/>
</linearGradient>
</defs>
</svg>
