<svg width="249" height="62" viewBox="0 0 249 62" fill="none" xmlns="http://www.w3.org/2000/svg">
<path d="M58.0618 41.4813C56.3589 41.4813 54.8041 41.0432 53.3973 40.1671C52.0029 39.2909 50.8861 38.1125 50.047 36.6317C49.2203 35.1509 48.8069 33.5159 48.8069 31.7266C48.8069 30.3815 49.0475 29.1229 49.5288 27.9506C50.01 26.766 50.6702 25.7294 51.5093 24.8409C52.3608 23.9401 53.3479 23.2368 54.4709 22.7308C55.5938 22.2249 56.7908 21.9719 58.0618 21.9719C59.5426 21.9719 60.8938 22.2989 62.1154 22.9529C63.3494 23.5946 64.386 24.4707 65.2251 25.5813C66.0765 26.6796 66.6812 27.9197 67.039 29.3018C67.3969 30.6839 67.4339 32.1091 67.1501 33.5776H54.8041C54.9768 34.0095 55.2051 34.4043 55.4889 34.7622C55.7851 35.1077 56.1429 35.3854 56.5625 35.5951C56.9944 35.8049 57.4941 35.916 58.0618 35.9283C58.6047 35.9407 59.1045 35.8234 59.5611 35.5766C60.03 35.3298 60.4372 34.9967 60.7827 34.5771L66.4467 35.8913C65.694 37.5325 64.5711 38.8775 63.0779 39.9264C61.5848 40.963 59.9128 41.4813 58.0618 41.4813ZM54.6004 29.5054H61.5416C61.3689 28.9748 61.1097 28.5059 60.7642 28.0987C60.4187 27.6915 60.0115 27.3706 59.5426 27.1362C59.086 26.9017 58.5924 26.7845 58.0618 26.7845C57.5435 26.7845 57.0499 26.9017 56.581 27.1362C56.1244 27.3706 55.7234 27.6915 55.3779 28.0987C55.0447 28.5059 54.7855 28.9748 54.6004 29.5054ZM70.1088 41L70.0903 22.4902H75.6432L75.6617 23.6563C76.2787 23.1257 76.9821 22.7123 77.7718 22.4162C78.5616 22.12 79.3945 21.9719 80.2707 21.9719C80.937 21.9719 81.6157 22.0706 82.3067 22.2681L80.1226 27.8951C79.6907 27.6976 79.2464 27.5989 78.7899 27.5989C78.2099 27.5989 77.6793 27.7408 77.198 28.0246C76.7291 28.2961 76.3527 28.6725 76.0689 29.1537C75.7974 29.6226 75.6617 30.1471 75.6617 30.7271V41H70.1088ZM95.093 28.0431H91.9463V41H86.3933V28.0431H83.9871V22.4902H86.3933V16.6781H91.9463V22.4902H95.093V28.0431ZM98.0357 22.4902H103.589V41H98.0357V22.4902ZM100.849 20.5652C100.047 20.5652 99.3746 20.2999 98.8316 19.7693C98.2887 19.2386 98.0172 18.5785 98.0172 17.7887C98.0172 17.0113 98.2887 16.3573 98.8316 15.8267C99.3746 15.2837 100.041 15.0122 100.831 15.0122C101.608 15.0122 102.262 15.2837 102.793 15.8267C103.336 16.3573 103.607 17.0113 103.607 17.7887C103.607 18.5785 103.342 19.2386 102.811 19.7693C102.293 20.2999 101.639 20.5652 100.849 20.5652ZM114.011 19.1214V22.4902H118.786V28.0431H114.011V41H108.458V28.0431H106.718V22.4902H108.458V19.1214C108.458 17.9615 108.742 16.9064 109.309 15.9562C109.889 14.9937 110.661 14.2287 111.623 13.661C112.586 13.081 113.653 12.7911 114.825 12.7911C115.677 12.7911 116.522 12.97 117.361 13.3278C118.2 13.6734 118.947 14.2225 119.601 14.9752L115.603 18.8993C115.541 18.7142 115.43 18.5785 115.27 18.4921C115.121 18.3934 114.973 18.344 114.825 18.344C114.603 18.344 114.412 18.418 114.251 18.5661C114.091 18.7142 114.011 18.8993 114.011 19.1214ZM134.088 22.4902H140.011L129.867 50.2549H123.981L127.313 41L120.65 22.4902H126.721L130.09 33.411L134.088 22.4902Z" fill="url(#paint0_linear_439_262)"/>
<path d="M34.652 16.2798C35.0748 17.3024 35.8865 18.1153 36.9085 18.5397L40.4919 20.0242C41.5147 20.4478 42.3273 21.2603 42.7509 22.2831C43.1745 23.3058 43.1745 24.455 42.7509 25.4777L41.2675 29.0589C40.8437 30.0821 40.8431 31.2324 41.269 32.255L42.7497 35.8352C42.9595 36.3418 43.0678 36.8847 43.0678 37.433C43.068 37.9814 42.9599 38.5244 42.7501 39.031C42.5402 39.5377 42.2326 39.9979 41.8449 40.3856C41.457 40.7733 40.9967 41.0809 40.4901 41.2905L36.9091 42.7739C35.8863 43.1967 35.0735 44.0085 34.6491 45.0305L33.1647 48.6141C32.7411 49.6369 31.9287 50.4495 30.9059 50.8731C29.8833 51.2967 28.7342 51.2967 27.7114 50.8731L24.1304 49.3897C23.1076 48.9671 21.9589 48.9679 20.9369 49.3921L17.3533 50.8745C16.3311 51.2971 15.183 51.2967 14.1612 50.8735C13.1393 50.4501 12.3272 49.6386 11.9033 48.617L10.4185 45.0321C9.99564 44.0095 9.184 43.1965 8.16203 42.7721L4.57841 41.2877C3.55615 40.8643 2.74388 40.0521 2.32009 39.0301C1.89632 38.0079 1.89575 36.8592 2.31849 35.8366L3.8018 32.2557C4.22438 31.2328 4.22351 30.0842 3.79942 29.062L2.31822 25.4756C2.10822 24.9691 2.00008 24.4261 2 23.8777C1.99992 23.3294 2.10787 22.7864 2.31771 22.2798C2.52755 21.7732 2.83515 21.3128 3.22296 20.9251C3.61075 20.5375 4.07113 20.23 4.57781 20.0203L8.15885 18.5369C9.18057 18.1145 9.99293 17.3038 10.4176 16.283L11.902 12.6992C12.3256 11.6765 13.1382 10.8639 14.1609 10.4403C15.1836 10.0166 16.3327 10.0166 17.3554 10.4403L20.9363 11.9237C21.9591 12.3462 23.1078 12.3454 24.13 11.9213L27.7151 10.4426C28.7377 10.0192 29.8864 10.0193 30.909 10.4428C31.9314 10.8664 32.7439 11.6787 33.1676 12.7012L34.6524 16.286L34.652 16.2798Z" stroke="url(#paint1_linear_439_262)" stroke-width="3.47059" stroke-linecap="round" stroke-linejoin="round"/>
<path d="M23.446 44.3733C21.6937 44.3733 20.0464 44.0278 18.5039 43.3368C16.9614 42.6334 15.604 41.6647 14.4317 40.4308C13.2718 39.1968 12.3586 37.7715 11.6923 36.155C11.0383 34.5261 10.7113 32.7862 10.7113 30.9352C10.7113 29.0719 11.0383 27.332 11.6923 25.7155C12.3586 24.0866 13.2718 22.6613 14.4317 21.4397C15.604 20.2057 16.9614 19.2432 18.5039 18.5522C20.0464 17.8488 21.6937 17.4971 23.446 17.4971C25.5438 17.4971 27.475 17.9845 29.2396 18.9594C31.0042 19.9219 32.4664 21.2114 33.6264 22.8279L28.6658 25.4933C28.0241 24.753 27.2528 24.1606 26.352 23.7164C25.4512 23.2722 24.4825 23.05 23.446 23.05C22.4588 23.05 21.5271 23.2537 20.651 23.6609C19.7872 24.0681 19.0222 24.6357 18.3558 25.3638C17.7018 26.0795 17.1897 26.9124 16.8195 27.8626C16.4493 28.8128 16.2642 29.837 16.2642 30.9352C16.2642 32.0211 16.4493 33.0392 16.8195 33.9893C17.1897 34.9395 17.7018 35.7786 18.3558 36.5067C19.0222 37.2224 19.7872 37.79 20.651 38.2096C21.5271 38.6168 22.4588 38.8204 23.446 38.8204C24.4825 38.8204 25.4512 38.5983 26.352 38.1541C27.2528 37.6975 28.0241 37.0928 28.6658 36.3401L33.6264 39.0425C32.4664 40.6467 31.0042 41.9362 29.2396 42.9111C27.475 43.8859 25.5438 44.3733 23.446 44.3733Z" fill="#5FC6FE"/>
<path d="M23.0349 28.8528C22.6883 28.2793 23.465 27.6958 23.9193 28.1884L30.3763 35.1881C30.5832 35.4125 30.9323 35.428 31.1584 35.223L55.669 12.9898L31.5465 41.521C31.3009 41.8114 30.8428 41.775 30.6461 41.4495L23.0349 28.8528Z" fill="#C2E144"/>
<path d="M146.726 44.4707L150.354 18.557H160.127C161.546 18.557 162.78 18.921 163.829 19.6491C164.89 20.3648 165.674 21.3273 166.18 22.5366C166.698 23.7336 166.852 25.0477 166.643 26.4792C166.445 27.9353 165.908 29.2618 165.032 30.4588C164.168 31.6557 163.107 32.6121 161.849 33.3278C160.59 34.0435 159.276 34.4014 157.906 34.4014H153.686L152.279 44.4707H146.726ZM154.463 28.8484H158.054C158.548 28.8484 159.017 28.725 159.461 28.4782C159.905 28.2191 160.281 27.8797 160.59 27.4602C160.898 27.0406 161.084 26.5779 161.145 26.072C161.219 25.566 161.164 25.1033 160.979 24.6837C160.794 24.2642 160.51 23.931 160.127 23.6842C159.757 23.4251 159.325 23.2955 158.831 23.2955H155.241L154.463 28.8484ZM182.943 25.9609H188.496V44.4707H182.924L182.665 42.8048C182.209 43.4465 181.629 43.9648 180.925 44.3596C180.234 44.7545 179.426 44.952 178.5 44.952C177.118 44.952 175.823 44.6928 174.613 44.1745C173.416 43.6563 172.361 42.9406 171.448 42.0274C170.535 41.1019 169.819 40.0407 169.301 38.8437C168.795 37.6344 168.542 36.3387 168.542 34.9567C168.542 33.6363 168.783 32.4023 169.264 31.2547C169.745 30.1071 170.418 29.1014 171.282 28.2376C172.158 27.3615 173.163 26.6766 174.299 26.183C175.446 25.6894 176.674 25.4426 177.982 25.4426C179.043 25.4426 180.006 25.6647 180.87 26.109C181.746 26.5409 182.523 27.0838 183.202 27.7378L182.943 25.9609ZM178.352 39.6211C179.117 39.6211 179.815 39.4237 180.444 39.0288C181.073 38.6339 181.573 38.1033 181.943 37.437C182.313 36.7706 182.499 36.0302 182.499 35.2158C182.499 34.4014 182.313 33.661 181.943 32.9946C181.573 32.3283 181.073 31.7977 180.444 31.4028C179.815 31.0079 179.117 30.8105 178.352 30.8105C177.587 30.8105 176.89 31.0079 176.261 31.4028C175.644 31.7977 175.15 32.3283 174.78 32.9946C174.422 33.661 174.243 34.4014 174.243 35.2158C174.243 36.0302 174.428 36.7706 174.798 37.437C175.169 38.1033 175.662 38.6339 176.279 39.0288C176.909 39.4237 177.6 39.6211 178.352 39.6211ZM202.392 31.5138H199.245V44.4707H193.692V31.5138H191.286V25.9609H193.692V20.1488H199.245V25.9609H202.392V31.5138ZM223.113 32.6429V44.4707H217.56V34.1978C217.56 33.6178 217.418 33.0933 217.134 32.6244C216.851 32.1432 216.474 31.7668 216.005 31.4953C215.536 31.2115 215.012 31.0696 214.432 31.0696C213.852 31.0696 213.321 31.2115 212.84 31.4953C212.371 31.7668 211.995 32.1432 211.711 32.6244C211.44 33.0933 211.304 33.6178 211.304 34.1978V44.4707H205.751L205.732 16.706H211.285L211.304 27.127C211.921 26.5964 212.624 26.183 213.414 25.8869C214.204 25.5907 215.037 25.4426 215.913 25.4426C217.246 25.4426 218.455 25.7696 219.541 26.4236C220.627 27.0653 221.49 27.9291 222.132 29.015C222.786 30.1009 223.113 31.3102 223.113 32.6429Z" fill="url(#paint2_linear_439_262)"/>
<path d="M143.426 49.4561C142.468 49.4561 141.691 50.233 141.691 51.1914C141.691 52.1498 142.468 52.9267 143.426 52.9267L143.426 49.4561ZM248.308 51.1914L238.289 41.1727L228.27 51.1914L238.289 61.2101L248.308 51.1914ZM143.426 51.1914L143.426 52.9267L238.289 52.9267L238.289 51.1914L238.289 49.4561L143.426 49.4561L143.426 51.1914Z" fill="url(#paint3_linear_439_262)"/>
<defs>
<linearGradient id="paint0_linear_439_262" x1="119.493" y1="13.4232" x2="55.3157" y2="36.7834" gradientUnits="userSpaceOnUse">
<stop stop-color="#C2E144"/>
<stop offset="1" stop-color="#5FC6FE"/>
</linearGradient>
<linearGradient id="paint1_linear_439_262" x1="22.5343" y1="10.1226" x2="41.3333" y2="3.90442" gradientUnits="userSpaceOnUse">
<stop stop-color="#5FC6FE"/>
</linearGradient>
<linearGradient id="paint2_linear_439_262" x1="202.581" y1="16.7415" x2="185.952" y2="44.588" gradientUnits="userSpaceOnUse">
<stop stop-color="#FFCB6E"/>
<stop offset="1" stop-color="#F76179"/>
</linearGradient>
<linearGradient id="paint3_linear_439_262" x1="143.426" y1="96.1914" x2="248.95" y2="90.2077" gradientUnits="userSpaceOnUse">
<stop stop-color="#FFCB6E" stop-opacity="0"/>
<stop offset="1" stop-color="#F76079"/>
</linearGradient>
</defs>
</svg>
