<svg width="39" height="39" viewBox="0 0 39 39" fill="none" xmlns="http://www.w3.org/2000/svg">
<circle cx="19.5" cy="19.5" r="19.5" fill="url(#paint0_linear_439_302)"/>
<path d="M20 10C20.9889 10 21.9556 10.2932 22.7779 10.8427C23.6001 11.3921 24.241 12.173 24.6194 13.0866C24.9978 14.0002 25.0969 15.0055 24.9039 15.9755C24.711 16.9454 24.2348 17.8363 23.5355 18.5355C22.8363 19.2348 21.9454 19.711 20.9755 19.9039C20.0055 20.0969 19.0002 19.9978 18.0866 19.6194C17.173 19.241 16.3921 18.6001 15.8427 17.7779C15.2932 16.9556 15 15.9889 15 15L15.005 14.783C15.0609 13.4958 15.6116 12.2798 16.5422 11.3887C17.4728 10.4975 18.7115 10.0001 20 10ZM22 22C23.3261 22 24.5979 22.5268 25.5355 23.4645C26.4732 24.4021 27 25.6739 27 27V28C27 28.5304 26.7893 29.0391 26.4142 29.4142C26.0391 29.7893 25.5304 30 25 30H15C14.4696 30 13.9609 29.7893 13.5858 29.4142C13.2107 29.0391 13 28.5304 13 28V27C13 25.6739 13.5268 24.4021 14.4645 23.4645C15.4021 22.5268 16.6739 22 18 22H22Z" fill="white"/>
<defs>
<linearGradient id="paint0_linear_439_302" x1="36.5" y1="7.5" x2="23.5" y2="51" gradientUnits="userSpaceOnUse">
<stop stop-color="#F76079"/>
<stop offset="1" stop-color="#FFCC6E"/>
</linearGradient>
</defs>
</svg>
