<svg width="82" height="31" viewBox="0 0 82 31" fill="none" xmlns="http://www.w3.org/2000/svg">
<rect x="0.00927734" y="0.25" width="81.5" height="30" rx="6" fill="url(#paint0_linear_502_1119)"/>
<path d="M23.2593 9.25C23.4711 9.25 23.634 9.31707 23.7886 9.47168C23.9431 9.62621 24.0095 9.78838 24.0093 9.99902V19.7314C24.0092 20.0155 23.9121 20.1951 23.6743 20.3506C23.4368 20.5057 23.2261 20.5261 22.9536 20.4102H22.9546L19.8052 19.0605L19.5093 18.9336L19.2134 19.0605L16.064 20.4102C15.7919 20.5253 15.5814 20.5052 15.3442 20.3506C15.1069 20.1958 15.0093 20.0163 15.0093 19.7314V10C15.0093 9.78823 15.0758 9.6256 15.23 9.47168C15.3462 9.35566 15.4673 9.28885 15.6099 9.2627L15.7603 9.25H23.2593Z" stroke="white" stroke-width="1.5"/>
<path d="M41.014 20.945C40.434 20.945 39.8765 20.855 39.3415 20.675C38.8115 20.49 38.3465 20.2275 37.9465 19.8875C37.5465 19.5425 37.259 19.13 37.084 18.65L38.8015 18.02C38.8715 18.22 39.014 18.4025 39.229 18.5675C39.444 18.7325 39.7065 18.865 40.0165 18.965C40.3265 19.065 40.659 19.115 41.014 19.115C41.379 19.115 41.719 19.06 42.034 18.95C42.354 18.835 42.6115 18.6775 42.8065 18.4775C43.0015 18.2725 43.099 18.035 43.099 17.765C43.099 17.49 42.9965 17.265 42.7915 17.09C42.5865 16.91 42.324 16.7675 42.004 16.6625C41.684 16.5575 41.354 16.4775 41.014 16.4225C40.269 16.3075 39.6015 16.13 39.0115 15.89C38.4215 15.65 37.954 15.3175 37.609 14.8925C37.269 14.4675 37.099 13.9175 37.099 13.2425C37.099 12.6075 37.2815 12.0525 37.6465 11.5775C38.0115 11.1025 38.4915 10.7325 39.0865 10.4675C39.6815 10.2025 40.324 10.07 41.014 10.07C41.589 10.07 42.144 10.16 42.679 10.34C43.214 10.52 43.6815 10.7825 44.0815 11.1275C44.4865 11.4725 44.7765 11.8875 44.9515 12.3725L43.2265 12.995C43.1565 12.795 43.014 12.6125 42.799 12.4475C42.584 12.2825 42.3215 12.1525 42.0115 12.0575C41.7015 11.9575 41.369 11.9075 41.014 11.9075C40.659 11.9025 40.3215 11.96 40.0015 12.08C39.6865 12.195 39.429 12.3525 39.229 12.5525C39.029 12.7525 38.929 12.9825 38.929 13.2425C38.929 13.5775 39.0215 13.83 39.2065 14C39.3965 14.17 39.649 14.295 39.964 14.375C40.279 14.45 40.629 14.52 41.014 14.585C41.714 14.695 42.3615 14.88 42.9565 15.14C43.5515 15.4 44.029 15.7475 44.389 16.1825C44.749 16.6125 44.929 17.14 44.929 17.765C44.929 18.4 44.749 18.9575 44.389 19.4375C44.029 19.9125 43.5515 20.2825 42.9565 20.5475C42.3615 20.8125 41.714 20.945 41.014 20.945ZM52.015 13.25H53.845V20.75H52.015L51.9325 19.82C51.7275 20.155 51.455 20.4275 51.115 20.6375C50.78 20.8425 50.3825 20.945 49.9225 20.945C49.3675 20.945 48.8475 20.84 48.3625 20.63C47.8775 20.42 47.45 20.13 47.08 19.76C46.715 19.39 46.4275 18.9625 46.2175 18.4775C46.0125 17.9925 45.91 17.4725 45.91 16.9175C45.91 16.3825 46.0075 15.88 46.2025 15.41C46.4025 14.94 46.68 14.5275 47.035 14.1725C47.39 13.8175 47.8 13.54 48.265 13.34C48.73 13.14 49.23 13.04 49.765 13.04C50.26 13.04 50.7025 13.15 51.0925 13.37C51.4875 13.59 51.8225 13.87 52.0975 14.21L52.015 13.25ZM49.8775 19.1825C50.2675 19.1825 50.6125 19.085 50.9125 18.89C51.2125 18.695 51.4475 18.4325 51.6175 18.1025C51.7875 17.7675 51.8725 17.4 51.8725 17C51.8725 16.595 51.7875 16.2275 51.6175 15.8975C51.4475 15.5625 51.21 15.2975 50.905 15.1025C50.605 14.9075 50.2625 14.81 49.8775 14.81C49.4925 14.81 49.14 14.91 48.82 15.11C48.505 15.305 48.2525 15.5675 48.0625 15.8975C47.8775 16.2275 47.785 16.595 47.785 17C47.785 17.405 47.88 17.7725 48.07 18.1025C48.26 18.4325 48.5125 18.695 48.8275 18.89C49.1475 19.085 49.4975 19.1825 49.8775 19.1825ZM59.645 20.75H57.2825L54.5525 13.2425H56.5025L58.4675 18.6425L60.425 13.2425H62.375L59.645 20.75ZM66.491 20.945C65.801 20.945 65.171 20.7675 64.601 20.4125C64.036 20.0575 63.5835 19.58 63.2435 18.98C62.9085 18.38 62.741 17.7175 62.741 16.9925C62.741 16.4475 62.8385 15.9375 63.0335 15.4625C63.2285 14.9825 63.496 14.5625 63.836 14.2025C64.181 13.8375 64.581 13.5525 65.036 13.3475C65.491 13.1425 65.976 13.04 66.491 13.04C67.076 13.04 67.611 13.165 68.096 13.415C68.586 13.66 69.001 13.9975 69.341 14.4275C69.681 14.8575 69.9285 15.3475 70.0835 15.8975C70.2385 16.4475 70.2735 17.0225 70.1885 17.6225H64.706C64.776 17.9025 64.891 18.155 65.051 18.38C65.211 18.6 65.4135 18.7775 65.6585 18.9125C65.9035 19.0425 66.181 19.11 66.491 19.115C66.811 19.12 67.101 19.045 67.361 18.89C67.626 18.73 67.846 18.515 68.021 18.245L69.8885 18.68C69.5835 19.345 69.1285 19.89 68.5235 20.315C67.9185 20.735 67.241 20.945 66.491 20.945ZM64.646 16.25H68.336C68.281 15.95 68.1635 15.68 67.9835 15.44C67.8085 15.195 67.591 15 67.331 14.855C67.071 14.71 66.791 14.6375 66.491 14.6375C66.191 14.6375 65.9135 14.71 65.6585 14.855C65.4035 14.995 65.186 15.1875 65.006 15.4325C64.831 15.6725 64.711 15.945 64.646 16.25Z" fill="white"/>
<defs>
<linearGradient id="paint0_linear_502_1119" x1="14.871" y1="15.25" x2="170.396" y2="-17.052" gradientUnits="userSpaceOnUse">
<stop stop-color="#F76079"/>
<stop offset="1" stop-color="#FFCC6E"/>
</linearGradient>
</defs>
</svg>
