<svg width="20" height="21" viewBox="0 0 20 21" fill="none" xmlns="http://www.w3.org/2000/svg">
<path d="M9.99951 0.470703C10.8936 0.470411 11.7678 0.74628 12.513 1.2638C13.2581 1.78132 13.8411 2.51751 14.1888 3.38028C14.5366 4.24305 14.6338 5.19409 14.4682 6.11442C14.3027 7.03474 13.8817 7.8835 13.258 8.55451L13.2471 8.56594C13.8634 9.22537 14.2835 10.0582 14.4563 10.9631L14.4727 11.0593L14.7009 11.0136C14.7918 10.9977 14.8828 10.9847 14.9737 10.9745L15.2501 10.9517L15.4546 10.9469C16.313 10.947 17.1537 11.2017 17.8796 11.6814C18.6056 12.1611 19.187 12.8463 19.5567 13.6577C19.9264 14.4692 20.0692 15.3736 19.9687 16.2665C19.8682 17.1594 19.5284 18.0043 18.9886 18.7034C18.4489 19.4024 17.7312 19.9271 16.9186 20.2168C16.1061 20.5065 15.2319 20.5492 14.3971 20.3402C13.5623 20.1311 12.801 19.6788 12.2014 19.0355C11.6018 18.3922 11.1883 17.5842 11.0087 16.705L10.9796 16.5488L10.7614 16.5945C10.5941 16.6241 10.4253 16.6438 10.2559 16.6536L9.99951 16.6612C9.7407 16.6612 9.48612 16.639 9.23579 16.5945L9.0185 16.5488L9.01486 16.5726C8.86742 17.4091 8.50876 18.189 7.97616 18.8311C7.44357 19.4733 6.75649 19.9542 5.98636 20.224L5.78634 20.2888C5.12761 20.4845 4.43519 20.5218 3.76077 20.3979C3.08636 20.274 2.44737 19.9922 1.89151 19.5734C1.33565 19.1546 0.877289 18.6097 0.550644 17.9793C0.223998 17.3489 0.0375075 16.6494 0.00509627 15.933C-0.027315 15.2166 0.0951902 14.5017 0.363465 13.8418C0.631741 13.1819 1.03885 12.5941 1.55441 12.1221C2.06997 11.6501 2.68065 11.3062 3.34086 11.116C4.00108 10.9259 4.69376 10.8945 5.3672 11.024L5.52449 11.0583L5.54177 10.9612C5.71451 10.0564 6.13546 9.22404 6.75189 8.56499L6.70643 8.51546C6.00495 7.74071 5.57125 6.74226 5.47448 5.67928L5.45812 5.44689L5.45357 5.23261C5.45357 3.96967 5.93252 2.75846 6.78505 1.86543C7.63758 0.972403 8.79385 0.470703 9.99951 0.470703ZM15.4546 14.7564C15.2135 14.7564 14.9822 14.8568 14.8117 15.0354C14.6412 15.214 14.5454 15.4562 14.5454 15.7088V15.7183C14.5454 15.9709 14.6412 16.2132 14.8117 16.3918C14.9822 16.5704 15.2135 16.6707 15.4546 16.6707C15.6958 16.6707 15.927 16.5704 16.0975 16.3918C16.268 16.2132 16.3638 15.9709 16.3638 15.7183V15.7088C16.3638 15.4562 16.268 15.214 16.0975 15.0354C15.927 14.8568 15.6958 14.7564 15.4546 14.7564ZM4.54439 14.7564C4.30326 14.7564 4.072 14.8568 3.90149 15.0354C3.73099 15.214 3.6352 15.4562 3.6352 15.7088V15.7183C3.6352 15.9709 3.73099 16.2132 3.90149 16.3918C4.072 16.5704 4.30326 16.6707 4.54439 16.6707C4.78552 16.6707 5.01677 16.5704 5.18728 16.3918C5.35778 16.2132 5.45357 15.9709 5.45357 15.7183V15.7088C5.45357 15.4562 5.35778 15.214 5.18728 15.0354C5.01677 14.8568 4.78552 14.7564 4.54439 14.7564ZM9.99951 9.99927C8.9994 9.99927 8.19023 10.8478 8.19023 11.8945V11.9136C8.19023 12.4162 8.38085 12.8983 8.72016 13.2537C9.05946 13.6091 9.51966 13.8088 9.99951 13.8088C10.4794 13.8088 10.9396 13.6091 11.2789 13.2537C11.6182 12.8983 11.8088 12.4162 11.8088 11.9136V11.8945C11.8088 11.3919 11.6182 10.9098 11.2789 10.5544C10.9396 10.199 10.4794 9.99927 9.99951 9.99927ZM9.99951 4.28023C9.75838 4.28023 9.52713 4.38057 9.35662 4.55917C9.18611 4.73778 9.09032 4.98002 9.09032 5.23261V5.24213C9.09032 5.49472 9.18611 5.73696 9.35662 5.91557C9.52713 6.09417 9.75838 6.19451 9.99951 6.19451C10.2406 6.19451 10.4719 6.09417 10.6424 5.91557C10.8129 5.73696 10.9087 5.49472 10.9087 5.24213V5.23261C10.9087 4.98002 10.8129 4.73778 10.6424 4.55917C10.4719 4.38057 10.2406 4.28023 9.99951 4.28023Z" fill="url(#paint0_linear_439_297)"/>
<defs>
<linearGradient id="paint0_linear_439_297" x1="13.5" y1="2.9707" x2="6.5" y2="24.4707" gradientUnits="userSpaceOnUse">
<stop stop-color="#F76079"/>
<stop offset="1" stop-color="#FFCC6E"/>
</linearGradient>
</defs>
</svg>
