<svg width="84" height="31" viewBox="0 0 84 31" fill="none" xmlns="http://www.w3.org/2000/svg">
<rect x="0.509277" y="0.25" width="83.2407" height="30" rx="6" fill="url(#paint0_linear_502_1123)"/>
<path d="M16.4999 16.6294L24.7499 8.37939M16.4999 16.6294L19.1249 21.8794C19.1578 21.9512 19.2107 22.012 19.2771 22.0547C19.3436 22.0974 19.4209 22.12 19.4999 22.12C19.5789 22.12 19.6562 22.0974 19.7227 22.0547C19.7892 22.012 19.842 21.9512 19.8749 21.8794L24.7499 8.37939M16.4999 16.6294L11.2499 14.0044C11.1781 13.9715 11.1173 13.9187 11.0746 13.8522C11.032 13.7857 11.0093 13.7084 11.0093 13.6294C11.0093 13.5504 11.032 13.4731 11.0746 13.4066C11.1173 13.3401 11.1781 13.2873 11.2499 13.2544L24.7499 8.37939" stroke="white" stroke-width="1.5" stroke-linecap="round" stroke-linejoin="round"/>
<path d="M37.325 20.945C36.745 20.945 36.1875 20.855 35.6525 20.675C35.1225 20.49 34.6575 20.2275 34.2575 19.8875C33.8575 19.5425 33.57 19.13 33.395 18.65L35.1125 18.02C35.1825 18.22 35.325 18.4025 35.54 18.5675C35.755 18.7325 36.0175 18.865 36.3275 18.965C36.6375 19.065 36.97 19.115 37.325 19.115C37.69 19.115 38.03 19.06 38.345 18.95C38.665 18.835 38.9225 18.6775 39.1175 18.4775C39.3125 18.2725 39.41 18.035 39.41 17.765C39.41 17.49 39.3075 17.265 39.1025 17.09C38.8975 16.91 38.635 16.7675 38.315 16.6625C37.995 16.5575 37.665 16.4775 37.325 16.4225C36.58 16.3075 35.9125 16.13 35.3225 15.89C34.7325 15.65 34.265 15.3175 33.92 14.8925C33.58 14.4675 33.41 13.9175 33.41 13.2425C33.41 12.6075 33.5925 12.0525 33.9575 11.5775C34.3225 11.1025 34.8025 10.7325 35.3975 10.4675C35.9925 10.2025 36.635 10.07 37.325 10.07C37.9 10.07 38.455 10.16 38.99 10.34C39.525 10.52 39.9925 10.7825 40.3925 11.1275C40.7975 11.4725 41.0875 11.8875 41.2625 12.3725L39.5375 12.995C39.4675 12.795 39.325 12.6125 39.11 12.4475C38.895 12.2825 38.6325 12.1525 38.3225 12.0575C38.0125 11.9575 37.68 11.9075 37.325 11.9075C36.97 11.9025 36.6325 11.96 36.3125 12.08C35.9975 12.195 35.74 12.3525 35.54 12.5525C35.34 12.7525 35.24 12.9825 35.24 13.2425C35.24 13.5775 35.3325 13.83 35.5175 14C35.7075 14.17 35.96 14.295 36.275 14.375C36.59 14.45 36.94 14.52 37.325 14.585C38.025 14.695 38.6725 14.88 39.2675 15.14C39.8625 15.4 40.34 15.7475 40.7 16.1825C41.06 16.6125 41.24 17.14 41.24 17.765C41.24 18.4 41.06 18.9575 40.7 19.4375C40.34 19.9125 39.8625 20.2825 39.2675 20.5475C38.6725 20.8125 38.025 20.945 37.325 20.945ZM49.8193 16.01V20.75H47.9893V16.49C47.9893 16.195 47.9168 15.9275 47.7718 15.6875C47.6268 15.4425 47.4318 15.25 47.1868 15.11C46.9468 14.965 46.6793 14.8925 46.3843 14.8925C46.0893 14.8925 45.8193 14.965 45.5743 15.11C45.3343 15.25 45.1418 15.4425 44.9968 15.6875C44.8568 15.9275 44.7868 16.195 44.7868 16.49V20.75H42.9568L42.9493 9.5H44.7793L44.7868 13.9175C45.0418 13.6475 45.3468 13.435 45.7018 13.28C46.0568 13.12 46.4393 13.04 46.8493 13.04C47.3943 13.04 47.8918 13.175 48.3418 13.445C48.7918 13.71 49.1493 14.0675 49.4143 14.5175C49.6843 14.9625 49.8193 15.46 49.8193 16.01ZM56.8221 13.25H58.6521V20.75H56.8221L56.7396 19.82C56.5346 20.155 56.2621 20.4275 55.9221 20.6375C55.5871 20.8425 55.1896 20.945 54.7296 20.945C54.1746 20.945 53.6546 20.84 53.1696 20.63C52.6846 20.42 52.2571 20.13 51.8871 19.76C51.5221 19.39 51.2346 18.9625 51.0246 18.4775C50.8196 17.9925 50.7171 17.4725 50.7171 16.9175C50.7171 16.3825 50.8146 15.88 51.0096 15.41C51.2096 14.94 51.4871 14.5275 51.8421 14.1725C52.1971 13.8175 52.6071 13.54 53.0721 13.34C53.5371 13.14 54.0371 13.04 54.5721 13.04C55.0671 13.04 55.5096 13.15 55.8996 13.37C56.2946 13.59 56.6296 13.87 56.9046 14.21L56.8221 13.25ZM54.6846 19.1825C55.0746 19.1825 55.4196 19.085 55.7196 18.89C56.0196 18.695 56.2546 18.4325 56.4246 18.1025C56.5946 17.7675 56.6796 17.4 56.6796 17C56.6796 16.595 56.5946 16.2275 56.4246 15.8975C56.2546 15.5625 56.0171 15.2975 55.7121 15.1025C55.4121 14.9075 55.0696 14.81 54.6846 14.81C54.2996 14.81 53.9471 14.91 53.6271 15.11C53.3121 15.305 53.0596 15.5675 52.8696 15.8975C52.6846 16.2275 52.5921 16.595 52.5921 17C52.5921 17.405 52.6871 17.7725 52.8771 18.1025C53.0671 18.4325 53.3196 18.695 53.6346 18.89C53.9546 19.085 54.3046 19.1825 54.6846 19.1825ZM60.1541 20.75L60.1466 13.25H61.9766L61.9841 13.9175C62.2391 13.6475 62.5441 13.435 62.8991 13.28C63.2541 13.12 63.6366 13.04 64.0466 13.04C64.3216 13.04 64.5966 13.08 64.8716 13.16L64.1516 15.005C63.9616 14.93 63.7716 14.8925 63.5816 14.8925C63.2866 14.8925 63.0166 14.965 62.7716 15.11C62.5316 15.25 62.3391 15.4425 62.1941 15.6875C62.0541 15.9275 61.9841 16.195 61.9841 16.49V20.75H60.1541ZM68.6614 20.945C67.9714 20.945 67.3414 20.7675 66.7714 20.4125C66.2064 20.0575 65.7539 19.58 65.4139 18.98C65.0789 18.38 64.9114 17.7175 64.9114 16.9925C64.9114 16.4475 65.0089 15.9375 65.2039 15.4625C65.3989 14.9825 65.6664 14.5625 66.0064 14.2025C66.3514 13.8375 66.7514 13.5525 67.2064 13.3475C67.6614 13.1425 68.1464 13.04 68.6614 13.04C69.2464 13.04 69.7814 13.165 70.2664 13.415C70.7564 13.66 71.1714 13.9975 71.5114 14.4275C71.8514 14.8575 72.0989 15.3475 72.2539 15.8975C72.4089 16.4475 72.4439 17.0225 72.3589 17.6225H66.8764C66.9464 17.9025 67.0614 18.155 67.2214 18.38C67.3814 18.6 67.5839 18.7775 67.8289 18.9125C68.0739 19.0425 68.3514 19.11 68.6614 19.115C68.9814 19.12 69.2714 19.045 69.5314 18.89C69.7964 18.73 70.0164 18.515 70.1914 18.245L72.0589 18.68C71.7539 19.345 71.2989 19.89 70.6939 20.315C70.0889 20.735 69.4114 20.945 68.6614 20.945ZM66.8164 16.25H70.5064C70.4514 15.95 70.3339 15.68 70.1539 15.44C69.9789 15.195 69.7614 15 69.5014 14.855C69.2414 14.71 68.9614 14.6375 68.6614 14.6375C68.3614 14.6375 68.0839 14.71 67.8289 14.855C67.5739 14.995 67.3564 15.1875 67.1764 15.4325C67.0014 15.6725 66.8814 15.945 66.8164 16.25Z" fill="white"/>
<defs>
<linearGradient id="paint0_linear_502_1123" x1="5.54031" y1="26.0313" x2="136.892" y2="10.8484" gradientUnits="userSpaceOnUse">
<stop stop-color="#F76079"/>
<stop offset="1" stop-color="#FFCC6E"/>
</linearGradient>
</defs>
</svg>
